<svg width="91" height="80" viewBox="0 0 91 80" fill="none" xmlns="http://www.w3.org/2000/svg">
<path d="M74.3579 0.000873254C77.9598 -0.0378251 81.5877 1.20501 84.2844 4.66003C85.8038 6.60668 87.1123 8.75705 87.6836 11.1544C88.3226 13.8354 87.9198 16.3072 86.8593 18.4436C86.1641 19.8442 85.2187 21.014 84.427 21.8931C87.8989 27.4337 91.324 34.9103 90.5825 45.6965C89.2887 64.5157 72.2647 79.1541 44.6166 79.4144C17.2195 79.6723 3.71283e-05 65.0006 0 47.4829C0 41.3383 1.5493 36.4448 3.26097 32.2451C4.52001 29.156 5.59565 26.9642 6.51227 24.7006C6.44421 24.6304 6.37457 24.5586 6.30342 24.485C5.31486 23.4629 3.92314 22.0093 2.82827 20.3204C1.68151 18.5515 0.581356 16.1121 0.672983 13.1076C0.765347 10.0805 2.03706 7.40156 3.88416 5.09369L4.15587 4.76542C6.99313 1.45262 10.7306 0.56639 14.0804 0.702865C17.0697 0.824659 20.3364 1.7825 23.0705 2.58548C28.9947 4.3254 35.7389 6.42195 44.3516 6.14813C53.1103 5.86967 59.6672 3.57505 65.4438 1.8013C68.1064 0.983701 71.3236 0.033518 74.3579 0.000873254ZM6.4383 47.7754C6.63271 60.0676 19.0748 73.0118 43.9615 72.9823L44.5561 72.979C69.8394 72.7409 82.9659 59.8539 84.136 45.5921L84.1616 45.2551C84.902 34.4843 80.7932 27.8376 77.0179 22.3645L76.2685 21.2849L76.2405 21.2443C80.1392 16.6147 84.1082 15.1031 79.4396 8.9179L79.2109 8.62009C74.1877 2.18424 64.1113 11.9589 44.5561 12.5806L44.0993 12.5932C24.8272 13.0427 13.8231 2.97509 8.90881 9.11516C3.95592 15.3036 10.3964 18.769 13.8619 23.2246C11.3866 31.3932 6.43589 37.5023 6.43589 47.4829L6.4383 47.7754Z" fill="#EA5900"/>
<path d="M13.9999 13C10.2869 17.4556 17.8309 19.5649 20.5 23C18.5935 29.2977 13.3669 38.8053 13.3669 46.5C13.3669 56.1184 24.4347 67.2231 44.0611 67.0382C63.6875 66.8532 77.4998 59.9213 77.4998 43C77.4998 32.6036 71.4063 26.9618 69.4998 22C71.7876 17.9924 79.2109 15.3035 74.7553 11.5905C70.2997 7.87751 59.1225 17.052 44.0611 17.5313C28.9997 18.0107 17.7129 8.54439 13.9999 13Z" fill="#EA5900"/>
</svg>
