<svg width="441" height="84" viewBox="0 0 441 84" fill="none" xmlns="http://www.w3.org/2000/svg">
<path d="M435.892 33.2397C434.005 33.2397 433.061 32.3077 433.061 30.4438C433.061 28.3038 432.405 26.67 431.094 25.5424C429.966 24.553 428.447 24.0582 426.538 24.0582C424.651 24.0582 423.086 24.4494 421.843 25.2318C420.601 26.0142 419.588 27.0151 418.806 28.2347C417.287 30.6279 416.528 33.5043 416.528 36.8639C416.528 43.146 418.438 47.265 422.257 49.2209C423.638 49.9343 425.168 50.291 426.848 50.291C428.528 50.291 429.909 50.1069 430.99 49.7387C432.072 49.3705 433.038 48.9678 433.89 48.5306C434.741 48.0934 435.477 47.6907 436.099 47.3225C436.743 46.9543 437.272 46.7703 437.686 46.7703C438.515 46.7703 439.171 47.1499 439.654 47.9093L440.413 49.1864C440.758 49.7847 440.931 50.3715 440.931 50.9468C440.931 51.4991 440.701 52.0858 440.241 52.7071C439.78 53.3054 439.159 53.8577 438.377 54.364C437.617 54.8702 436.743 55.3304 435.754 55.7446C434.764 56.1588 433.74 56.5155 432.682 56.8146C427.619 58.1723 422.994 57.9652 418.806 56.1933C414.111 54.2144 410.878 50.6707 409.107 45.5622C408.232 43.0309 407.795 40.2006 407.795 37.071C407.795 33.9415 408.255 31.1342 409.176 28.6489C410.119 26.1637 411.419 24.0582 413.076 22.3324C416.505 18.7886 420.98 17.0168 426.503 17.0168C431.381 17.0168 435.121 18.2939 437.721 20.8481C439.907 23.0342 441 25.7725 441 29.0631C441 31.8475 439.573 33.2397 436.72 33.2397H435.892Z" fill="black"/>
<path d="M389.864 11.218C388.299 11.218 386.964 10.6772 385.86 9.59567C384.755 8.53715 384.203 7.2025 384.203 5.59172C384.203 4.02696 384.755 2.69231 385.86 1.58777C386.918 0.529257 388.253 0 389.864 0C392.326 0 394.052 1.12755 395.041 3.38265C395.341 4.04997 395.49 4.78633 395.49 5.59172C395.49 7.2025 394.938 8.53715 393.833 9.59567C392.729 10.6772 391.406 11.218 389.864 11.218ZM393.902 47.3225C393.902 48.9563 394.443 49.7732 395.525 49.7732C395.893 49.7732 396.307 49.6697 396.767 49.4626C397.665 49.0714 398.274 48.8758 398.597 48.8758C399.08 48.8758 399.471 49.2094 399.77 49.8768L400.84 52.2929C401.024 52.6841 401.116 53.0523 401.116 53.3975C401.116 54.387 400.265 55.3074 398.562 56.1588C396.951 56.9872 395.352 57.4014 393.764 57.4014C392.2 57.4014 390.945 57.2288 390.002 56.8837C389.058 56.5385 388.253 55.9632 387.586 55.1578C386.251 53.501 385.584 50.8087 385.584 47.0809V20.1578C385.584 19.5135 385.768 18.9727 386.136 18.5355C386.504 18.0983 386.941 17.8797 387.448 17.8797H392.073C392.602 17.8797 393.039 18.0983 393.385 18.5355C393.73 18.9727 393.902 19.5135 393.902 20.1578V47.3225Z" fill="black"/>
<path d="M353.225 53.1213C355.388 52.0628 357.678 51.5336 360.094 51.5336C362.533 51.5336 364.696 51.7637 366.583 52.2239C368.493 52.6611 370.207 53.3629 371.726 54.3294C375.132 56.4925 376.834 59.5184 376.834 63.4073C376.834 67.4573 374.901 70.7134 371.036 73.1756C367.607 75.3386 363.488 76.4202 358.679 76.4202C353.777 76.4202 349.693 75.3616 346.425 73.2446C342.904 70.9435 341.144 67.814 341.144 63.856C341.144 59.0467 343.687 54.3984 348.772 49.9113C350.751 48.1854 352.937 46.6322 355.33 45.2515C351.58 44.9063 348.381 43.5832 345.735 41.2821C342.766 38.6818 341.282 35.4487 341.282 31.5829C341.282 27.1417 342.95 23.5404 346.287 20.7791C349.348 18.2709 352.995 17.0168 357.229 17.0168C361.785 17.0168 365.363 18.2479 367.964 20.7101C368.769 21.4694 369.413 22.3324 369.897 23.2988C369.897 21.1818 369.62 18.9957 369.068 16.7406C368.539 14.4625 368.274 13.1049 368.274 12.6677C368.274 12.2304 368.355 11.8853 368.516 11.6321C368.7 11.356 368.907 11.1489 369.137 11.0108C369.482 10.8037 369.874 10.7002 370.311 10.7002H373.279C375.189 10.7002 376.144 13.358 376.144 18.6736C376.144 22.9306 375.293 26.8541 373.59 30.4438C373.636 30.95 373.659 31.6174 373.659 32.4458C373.659 33.2742 373.475 34.2406 373.107 35.3452C372.738 36.4497 372.244 37.4852 371.622 38.4517C371.024 39.3952 370.322 40.2696 369.517 41.075C368.734 41.8804 367.895 42.6282 366.997 43.3186C366.123 44.0089 365.237 44.6417 364.339 45.217C359.3 48.4155 356.285 50.4175 355.296 51.2229C354.306 52.0053 353.616 52.6381 353.225 53.1213ZM351.637 37.1055C352.42 37.7729 353.328 38.2906 354.364 38.6588C355.422 39.004 356.539 39.1765 357.712 39.1765C358.909 39.1765 360.002 39.004 360.991 38.6588C361.981 38.2906 362.855 37.7614 363.614 37.071C365.225 35.6213 366.031 33.7574 366.031 31.4793C366.031 29.1552 365.133 27.3258 363.338 25.9911C361.751 24.8176 359.795 24.2308 357.47 24.2308C353.789 24.2308 351.246 25.5999 349.842 28.3383C349.382 29.2357 349.152 30.2827 349.152 31.4793C349.152 32.6529 349.371 33.7114 349.808 34.6548C350.245 35.5983 350.855 36.4152 351.637 37.1055ZM349.98 59.5069C349.129 60.4734 348.703 61.5434 348.703 62.717C348.703 63.8906 348.991 64.8915 349.566 65.72C350.141 66.5484 350.901 67.2387 351.844 67.791C353.662 68.8265 355.94 69.3442 358.679 69.3442C363.005 69.3442 366.019 68.2742 367.722 66.1342C368.274 65.4208 368.55 64.5234 368.55 63.4418C368.55 62.3603 368.205 61.4399 367.515 60.6805C366.848 59.9211 366.008 59.3343 364.995 58.9201C363.315 58.2298 361.129 57.8846 358.437 57.8846C354.295 57.8846 351.476 58.4254 349.98 59.5069Z" fill="black"/>
<path d="M333.051 54.9853C333.051 56.2048 332.452 56.8146 331.256 56.8146H327.908C327.01 56.8146 326.469 56.6421 326.285 56.2969C326.101 55.9287 325.998 55.6066 325.975 55.3304C325.952 55.0313 325.906 54.6746 325.837 54.2604C325.698 53.1329 325.503 51.9133 325.25 50.6016C323.455 53.8922 320.636 56.0668 316.793 57.1253C315.435 57.4935 313.94 57.6776 312.306 57.6776C310.672 57.6776 309.038 57.4014 307.405 56.8492C305.771 56.3199 304.321 55.526 303.055 54.4675C300.202 52.0743 298.775 48.9333 298.775 45.0444C298.775 40.7873 300.34 37.5313 303.47 35.2762C306.047 33.4583 309.361 32.5493 313.411 32.5493C317.46 32.5493 320.889 33.7344 323.697 36.1046C323.766 35.3222 323.8 34.3442 323.8 33.1706C323.8 31.9971 323.57 30.8235 323.11 29.6499C322.65 28.4764 321.994 27.4984 321.142 26.716C319.393 25.1743 316.954 24.4034 313.825 24.4034C311.017 24.4034 308.164 25.1743 305.265 26.716C304.712 27.0151 304.229 27.1647 303.815 27.1647C303.194 27.1647 302.595 26.5549 302.02 25.3353C301.399 24.0927 301.088 23.1953 301.088 22.643C301.088 21.6305 301.847 20.6526 303.366 19.7091C306.266 17.9142 310.143 17.0168 314.998 17.0168C319.416 17.0168 323.075 18.2249 325.975 20.641C329.403 23.5405 331.118 27.6365 331.118 32.929C331.118 35.2762 330.738 38.2331 329.979 41.7998C331.935 47.3685 332.959 51.7637 333.051 54.9853ZM309.924 40.3501C308.981 41.0405 308.302 41.7308 307.888 42.4211C307.497 43.1115 307.301 43.9284 307.301 44.8718C307.301 45.7923 307.462 46.6207 307.784 47.357C308.129 48.0704 308.601 48.6687 309.199 49.1519C310.465 50.1414 311.88 50.6361 313.445 50.6361C315.033 50.6361 316.333 50.452 317.345 50.0839C318.358 49.7157 319.232 49.244 319.969 48.6687C321.556 47.4261 322.35 46.1144 322.35 44.7338C322.212 43.0079 321.257 41.6503 319.485 40.6608C317.898 39.7403 316.022 39.2801 313.859 39.2801C312.179 39.2801 310.868 39.6368 309.924 40.3501Z" fill="black"/>
<path d="M251.747 17.0168C257.546 17.0168 261.216 19.6055 262.758 24.783C265.059 21.0782 268.108 18.6621 271.905 17.5345C273.193 17.1663 274.815 16.9822 276.771 16.9822C278.727 16.9822 280.614 17.4655 282.432 18.4319C284.273 19.3984 285.631 20.664 286.505 22.2288C287.403 23.7705 287.966 25.4734 288.196 27.3373C288.45 29.2012 288.576 31.2032 288.576 33.3432V54.5365C288.576 55.1808 288.369 55.7216 287.955 56.1588C287.541 56.596 286.931 56.8146 286.125 56.8146H282.743C281.868 56.8146 281.224 56.596 280.81 56.1588C280.396 55.7216 280.189 55.1808 280.189 54.5365V33.0325C280.189 30.0641 279.671 27.855 278.635 26.4053C277.623 24.9556 276.012 24.2308 273.803 24.2308C271.295 24.2308 269.097 25.3353 267.21 27.5444C265.185 29.8455 264.173 32.6989 264.173 36.1045V54.5365C264.173 55.1808 263.966 55.7216 263.551 56.1588C263.137 56.596 262.527 56.8146 261.722 56.8146H258.339C257.465 56.8146 256.821 56.596 256.406 56.1588C255.992 55.7216 255.785 55.1808 255.785 54.5365V33.0325C255.785 30.0641 255.267 27.855 254.232 26.4053C253.219 24.9556 251.609 24.2308 249.4 24.2308C246.891 24.2308 244.682 25.3353 242.772 27.5444C240.77 29.8455 239.769 32.6989 239.769 36.1045V54.5365C239.769 55.1808 239.574 55.7216 239.183 56.1588C238.791 56.596 238.193 56.8146 237.388 56.8146H233.833C233.027 56.8146 232.417 56.596 232.003 56.1588C231.589 55.7216 231.382 55.1808 231.382 54.5365V33.3432C231.382 28.7179 231.232 25.4964 230.933 23.6785C230.634 21.8376 230.484 20.7331 230.484 20.3649C230.484 18.7081 231.278 17.8797 232.866 17.8797H234.764C236.053 17.8797 236.928 18.3629 237.388 19.3294C237.94 20.503 238.469 22.3208 238.976 24.783C240.977 21.1703 243.877 18.7771 247.674 17.6035C248.962 17.2124 250.32 17.0168 251.747 17.0168Z" fill="black"/>
<path d="M221.46 23.1262C221.46 24.4149 220.735 25.0592 219.285 25.0592H209.551V46.7357C209.551 49.0829 210.713 50.2564 213.038 50.2564C214.51 50.2564 216.432 49.5201 218.802 48.0474C219.262 47.7482 219.757 47.5986 220.286 47.5986C220.838 47.5986 221.276 47.9783 221.598 48.7377L222.392 50.5326C222.691 51.2229 222.84 51.8097 222.84 52.2929C222.84 52.7762 222.472 53.3399 221.736 53.9842C221.022 54.6055 220.102 55.1693 218.974 55.6756C216.42 56.8261 214.108 57.4014 212.037 57.4014C209.966 57.4014 208.32 57.1943 207.101 56.7801C205.904 56.3429 204.88 55.6986 204.029 54.8472C202.188 53.0523 201.267 50.4635 201.267 47.0809V25.0592H198.368C196.918 25.0592 196.193 24.4034 196.193 23.0917V21.1243C196.193 20.595 196.331 20.1808 196.608 19.8817C196.884 19.5825 197.424 19.3524 198.23 19.1913L201.682 18.1903L202.993 10.0789C203.246 8.56015 203.868 7.80078 204.857 7.80078H207.722C208.251 7.80078 208.688 8.01939 209.034 8.4566C209.379 8.8708 209.551 9.41156 209.551 10.0789V17.8797H219.285C220.735 17.8797 221.46 18.5125 221.46 19.7781V23.1262Z" fill="black"/>
<path d="M150.304 37.2091C150.304 34.2177 150.798 31.4793 151.788 28.9941C152.8 26.4859 154.181 24.3458 155.93 22.574C159.589 18.8692 164.202 17.0168 169.771 17.0168C176.007 17.0168 180.84 18.8692 184.268 22.574C187.582 26.1407 189.239 31.0421 189.239 37.2781C189.239 43.3071 187.363 48.2315 183.612 52.0513C179.954 55.8021 175.34 57.6776 169.771 57.6776C163.903 57.6776 159.186 55.7561 155.619 51.9133C152.076 48.1624 150.304 43.261 150.304 37.2091ZM161.384 28.4418C160.532 29.7075 159.911 31.1572 159.52 32.791C159.129 34.4017 158.933 36.047 158.933 37.7269C158.933 39.3837 159.152 40.9829 159.589 42.5247C160.049 44.0434 160.728 45.4011 161.625 46.5977C163.604 49.2209 166.366 50.5326 169.909 50.5326C173.522 50.5326 176.26 49.244 178.124 46.6667C179.781 44.4116 180.609 41.3396 180.609 37.4507C180.609 31.6289 178.7 27.6134 174.88 25.4044C173.476 24.599 171.773 24.1963 169.771 24.1963C167.792 24.1963 166.112 24.5875 164.732 25.3698C163.374 26.1292 162.258 27.1532 161.384 28.4418Z" fill="black"/>
<path d="M113.285 50.8432C113.515 53.1444 113.63 56.0208 113.63 59.4724V73.7279C113.63 75.4307 112.951 76.2821 111.594 76.2821H107.314C105.864 76.2821 105.139 75.3847 105.139 73.5898V35.3797C105.139 28.9136 104.794 24.1963 104.104 21.2278C104.035 20.9287 104 20.5145 104 19.9852C104 19.456 104.207 18.9727 104.621 18.5355C105.059 18.0983 105.611 17.8797 106.278 17.8797H108.384C109.649 17.8797 110.547 18.432 111.076 19.5365C111.697 20.8251 112.169 22.4934 112.491 24.5414C114.102 21.7341 116.299 19.6861 119.084 18.3975C121.063 17.477 123.306 17.0168 125.815 17.0168C128.346 17.0168 130.601 17.5115 132.58 18.501C134.559 19.4675 136.204 20.8021 137.516 22.505C140.116 25.8876 141.416 30.4208 141.416 36.1046C141.416 42.0415 139.955 47.0579 137.033 51.1539C133.949 55.503 129.911 57.6776 124.917 57.6776C119.717 57.6776 115.839 55.3995 113.285 50.8432ZM112.836 38.5898C112.836 41.9034 113.941 44.7568 116.15 47.1499C118.244 49.405 120.614 50.5326 123.26 50.5326C126.597 50.5326 129.071 48.9103 130.681 45.6657C131.97 43.0885 132.614 39.8324 132.614 35.8975C132.614 32.7219 131.855 30.0296 130.336 27.8205C128.703 25.4274 126.528 24.2308 123.813 24.2308C120.752 24.2308 118.14 25.4964 115.977 28.0276C113.883 30.5128 112.836 33.4008 112.836 36.6914V38.5898Z" fill="black"/>
<path d="M74.3579 4.00087C77.9598 3.96217 81.5877 5.20501 84.2844 8.66003C85.8038 10.6067 87.1123 12.7571 87.6836 15.1544C88.3226 17.8354 87.9198 20.3072 86.8593 22.4436C86.1641 23.8442 85.2187 25.014 84.427 25.8931C87.8989 31.4337 91.324 38.9103 90.5825 49.6965C89.2887 68.5157 72.2647 83.1541 44.6166 83.4144C17.2195 83.6723 3.71283e-05 69.0006 0 51.4829C0 45.3383 1.5493 40.4448 3.26097 36.2451C4.52001 33.156 5.59565 30.9642 6.51227 28.7006C6.44421 28.6304 6.37457 28.5586 6.30342 28.485C5.31486 27.4629 3.92314 26.0093 2.82827 24.3204C1.68151 22.5515 0.581356 20.1121 0.672983 17.1076C0.765347 14.0805 2.03706 11.4016 3.88416 9.09369L4.15587 8.76542C6.99313 5.45262 10.7306 4.56639 14.0804 4.70286C17.0697 4.82466 20.3364 5.7825 23.0705 6.58548C28.9947 8.3254 35.7389 10.422 44.3516 10.1481C53.1103 9.86967 59.6672 7.57505 65.4438 5.8013C68.1064 4.9837 71.3236 4.03352 74.3579 4.00087ZM6.4383 51.7754C6.63271 64.0676 19.0748 77.0118 43.9615 76.9823L44.5561 76.979C69.8394 76.7409 82.9659 63.8539 84.136 49.5921L84.1616 49.2551C84.902 38.4843 80.7932 31.8376 77.0179 26.3645L76.2685 25.2849L76.2405 25.2443C80.1392 20.6147 84.1082 19.1031 79.4396 12.9179L79.2109 12.6201C74.1877 6.18424 64.1113 15.9589 44.5561 16.5806L44.0993 16.5932C24.8272 17.0427 13.8231 6.97509 8.90881 13.1152C3.95592 19.3036 10.3964 22.769 13.8619 27.2246C11.3866 35.3932 6.43589 41.5023 6.43589 51.4829L6.4383 51.7754Z" fill="#EA5900"/>
<path d="M13.9999 17C10.2869 21.4556 17.8309 23.5649 20.5 27C18.5935 33.2977 13.3669 42.8053 13.3669 50.5C13.3669 60.1184 24.4347 71.2231 44.0611 71.0382C63.6875 70.8532 77.4998 63.9213 77.4998 47C77.4998 36.6036 71.4063 30.9618 69.4998 26C71.7876 21.9924 79.2109 19.3035 74.7553 15.5905C70.2997 11.8775 59.1225 21.052 44.0611 21.5313C28.9997 22.0107 17.7129 12.5444 13.9999 17Z" fill="#EA5900"/>
</svg>
