<svg width="499" height="93" viewBox="0 0 499 93" fill="none" xmlns="http://www.w3.org/2000/svg">
<path d="M74.3579 13.0009C77.9598 12.9622 81.5877 14.205 84.2844 17.66C85.8038 19.6067 87.1123 21.7571 87.6836 24.1544C88.3226 26.8354 87.9198 29.3072 86.8593 31.4436C86.1641 32.8442 85.2187 34.014 84.427 34.8931C87.8989 40.4337 91.324 47.9103 90.5825 58.6965C89.2887 77.5157 72.2647 92.1541 44.6166 92.4144C17.2195 92.6723 3.71283e-05 78.0006 0 60.4829C0 54.3383 1.5493 49.4448 3.26097 45.2451C4.52001 42.156 5.59565 39.9642 6.51227 37.7006C6.44421 37.6304 6.37457 37.5586 6.30342 37.485C5.31486 36.4629 3.92314 35.0093 2.82827 33.3204C1.68151 31.5515 0.581356 29.1121 0.672983 26.1076C0.765347 23.0805 2.03706 20.4016 3.88416 18.0937L4.15587 17.7654C6.99313 14.4526 10.7306 13.5664 14.0804 13.7029C17.0697 13.8247 20.3364 14.7825 23.0705 15.5855C28.9947 17.3254 35.7389 19.422 44.3516 19.1481C53.1103 18.8697 59.6672 16.575 65.4438 14.8013C68.1064 13.9837 71.3236 13.0335 74.3579 13.0009ZM6.4383 60.7754C6.63271 73.0676 19.0748 86.0118 43.9615 85.9823L44.5561 85.979C69.8394 85.7409 82.9659 72.8539 84.136 58.5921L84.1616 58.2551C84.902 47.4843 80.7932 40.8376 77.0179 35.3645L76.2685 34.2849L76.2405 34.2443C80.1392 29.6147 84.1082 28.1031 79.4396 21.9179L79.2109 21.6201C74.1877 15.1842 64.1113 24.9589 44.5561 25.5806L44.0993 25.5932C24.8272 26.0427 13.8231 15.9751 8.90881 22.1152C3.95592 28.3036 10.3964 31.769 13.8619 36.2246C11.3866 44.3932 6.43589 50.5023 6.43589 60.4829L6.4383 60.7754Z" fill="white"/>
<path d="M14.0002 26C10.2872 30.4556 17.8311 32.5649 20.5002 36C18.5937 42.2977 13.3672 51.8053 13.3672 59.5C13.3672 69.1184 24.4349 80.2231 44.0613 80.0382C63.6877 79.8532 77.5 72.9213 77.5 56C77.5 45.6036 71.4066 39.9618 69.5 35C71.7879 30.9924 79.2112 28.3035 74.7555 24.5905C70.2999 20.8775 59.1227 30.052 44.0613 30.5313C28.9999 31.0107 17.7132 21.5444 14.0002 26Z" fill="white"/>
<path d="M492.275 39.9683C490.006 39.9683 488.872 38.8477 488.872 36.6064C488.872 34.0332 488.083 32.0687 486.506 30.7129C485.15 29.5231 483.324 28.9282 481.027 28.9282C478.758 28.9282 476.877 29.3986 475.383 30.3394C473.889 31.2801 472.671 32.4837 471.73 33.9502C469.904 36.8278 468.991 40.2865 468.991 44.3262C468.991 51.8799 471.288 56.8327 475.881 59.1846C477.541 60.0423 479.381 60.4712 481.401 60.4712C483.421 60.4712 485.081 60.2498 486.381 59.8071C487.682 59.3644 488.844 58.8802 489.868 58.3545C490.891 57.8288 491.777 57.3446 492.524 56.9019C493.299 56.4591 493.935 56.2378 494.433 56.2378C495.429 56.2378 496.218 56.6943 496.799 57.6074L497.712 59.1431C498.127 59.8625 498.334 60.568 498.334 61.2598C498.334 61.9238 498.058 62.6294 497.504 63.3765C496.951 64.0959 496.204 64.7599 495.263 65.3687C494.35 65.9774 493.299 66.5308 492.109 67.0288C490.919 67.5269 489.688 67.9557 488.415 68.3154C482.328 69.9479 476.766 69.6989 471.73 67.5684C466.086 65.1888 462.198 60.9277 460.068 54.7852C459.016 51.7415 458.491 48.3382 458.491 44.5752C458.491 40.8122 459.044 37.4365 460.151 34.4482C461.285 31.46 462.849 28.9282 464.841 26.853C468.964 22.592 474.345 20.4614 480.986 20.4614C486.852 20.4614 491.348 21.9971 494.475 25.0684C497.103 27.6969 498.417 30.9896 498.417 34.9463C498.417 38.2943 496.702 39.9683 493.271 39.9683H492.275Z" fill="white"/>
<path d="M440.331 13.4888C438.449 13.4888 436.844 12.8385 435.516 11.5381C434.188 10.2653 433.524 8.66048 433.524 6.72363C433.524 4.84212 434.188 3.2373 435.516 1.90918C436.789 0.636393 438.394 0 440.331 0C443.291 0 445.366 1.35579 446.556 4.06738C446.916 4.86979 447.096 5.75521 447.096 6.72363C447.096 8.66048 446.432 10.2653 445.104 11.5381C443.775 12.8385 442.184 13.4888 440.331 13.4888ZM445.187 56.9019C445.187 58.8664 445.837 59.8486 447.137 59.8486C447.58 59.8486 448.078 59.7241 448.631 59.4751C449.71 59.0047 450.444 58.7695 450.831 58.7695C451.412 58.7695 451.882 59.1707 452.242 59.9731L453.529 62.8784C453.75 63.3488 453.861 63.7915 453.861 64.2065C453.861 65.3963 452.837 66.5031 450.79 67.5269C448.853 68.5229 446.93 69.021 445.021 69.021C443.139 69.021 441.631 68.8135 440.497 68.3984C439.362 67.9834 438.394 67.2917 437.591 66.3232C435.986 64.3311 435.184 61.0938 435.184 56.6113V24.2383C435.184 23.4635 435.405 22.8133 435.848 22.2876C436.291 21.7619 436.817 21.499 437.425 21.499H442.987C443.623 21.499 444.149 21.7619 444.564 22.2876C444.979 22.8133 445.187 23.4635 445.187 24.2383V56.9019Z" fill="white"/>
<path d="M399.675 63.8745C402.276 62.6017 405.029 61.9653 407.934 61.9653C410.867 61.9653 413.468 62.242 415.737 62.7954C418.033 63.3211 420.095 64.165 421.921 65.3271C426.016 67.9281 428.063 71.5666 428.063 76.2427C428.063 81.1125 425.739 85.0277 421.091 87.9883C416.968 90.5892 412.015 91.8896 406.232 91.8896C400.339 91.8896 395.428 90.6169 391.499 88.0713C387.265 85.3044 385.148 81.5413 385.148 76.7822C385.148 70.9993 388.206 65.4102 394.321 60.0146C396.7 57.9395 399.329 56.0718 402.207 54.4116C397.696 53.9966 393.85 52.4056 390.668 49.6387C387.099 46.512 385.314 42.6245 385.314 37.9761C385.314 32.6359 387.32 28.3057 391.333 24.9854C395.013 21.9694 399.398 20.4614 404.489 20.4614C409.968 20.4614 414.27 21.9417 417.397 24.9023C418.365 25.8154 419.14 26.853 419.721 28.0151C419.721 25.4696 419.389 22.841 418.725 20.1294C418.089 17.3901 417.771 15.7576 417.771 15.2319C417.771 14.7062 417.867 14.2912 418.061 13.9868C418.282 13.6548 418.531 13.4058 418.808 13.2397C419.223 12.9907 419.694 12.8662 420.219 12.8662H423.789C426.085 12.8662 427.233 16.062 427.233 22.4536C427.233 27.5724 426.21 32.29 424.162 36.6064C424.217 37.2152 424.245 38.0176 424.245 39.0137C424.245 40.0098 424.024 41.1719 423.581 42.5C423.138 43.8281 422.543 45.0732 421.796 46.2354C421.077 47.3698 420.233 48.4212 419.265 49.3896C418.324 50.3581 417.314 51.2573 416.235 52.0874C415.183 52.9175 414.118 53.6784 413.039 54.3701C406.979 58.2161 403.355 60.6234 402.165 61.5918C400.975 62.5326 400.145 63.2935 399.675 63.8745ZM397.766 44.6167C398.706 45.4191 399.799 46.0417 401.044 46.4844C402.317 46.8994 403.659 47.1069 405.07 47.1069C406.509 47.1069 407.823 46.8994 409.013 46.4844C410.203 46.0417 411.254 45.4053 412.167 44.5752C414.104 42.832 415.073 40.5908 415.073 37.8516C415.073 35.057 413.994 32.8573 411.835 31.2524C409.926 29.8413 407.574 29.1357 404.78 29.1357C400.353 29.1357 397.295 30.7821 395.607 34.0747C395.054 35.1538 394.777 36.4128 394.777 37.8516C394.777 39.2627 395.04 40.5355 395.566 41.6699C396.092 42.8044 396.825 43.7866 397.766 44.6167ZM395.773 71.5527C394.75 72.7148 394.238 74.0015 394.238 75.4126C394.238 76.8237 394.584 78.0273 395.275 79.0234C395.967 80.0195 396.88 80.8496 398.015 81.5137C400.201 82.7588 402.94 83.3813 406.232 83.3813C411.434 83.3813 415.059 82.0947 417.106 79.5215C417.771 78.6637 418.103 77.5846 418.103 76.2842C418.103 74.9837 417.688 73.877 416.857 72.9639C416.055 72.0508 415.045 71.3452 413.828 70.8472C411.808 70.0171 409.179 69.6021 405.942 69.6021C400.961 69.6021 397.572 70.2523 395.773 71.5527Z" fill="white"/>
<path d="M378.816 66.1157C378.816 67.5822 378.097 68.3154 376.658 68.3154H372.632C371.553 68.3154 370.903 68.1079 370.682 67.6929C370.46 67.2502 370.336 66.8628 370.308 66.5308C370.28 66.1711 370.225 65.7422 370.142 65.2441C369.976 63.8883 369.741 62.4219 369.437 60.8447C367.278 64.8014 363.889 67.4162 359.268 68.689C357.636 69.1317 355.837 69.353 353.873 69.353C351.908 69.353 349.944 69.021 347.979 68.3569C346.014 67.7205 344.271 66.766 342.75 65.4932C339.319 62.6156 337.603 58.8387 337.603 54.1626C337.603 49.0438 339.485 45.1286 343.248 42.417C346.347 40.2311 350.331 39.1382 355.201 39.1382C360.07 39.1382 364.193 40.5632 367.569 43.4131C367.652 42.4723 367.693 41.2964 367.693 39.8853C367.693 38.4741 367.417 37.063 366.863 35.6519C366.31 34.2407 365.521 33.0648 364.498 32.124C362.395 30.2702 359.462 29.3433 355.699 29.3433C352.323 29.3433 348.892 30.2702 345.406 32.124C344.742 32.4837 344.161 32.6636 343.663 32.6636C342.916 32.6636 342.196 31.9303 341.504 30.4639C340.757 28.9697 340.384 27.8906 340.384 27.2266C340.384 26.0091 341.297 24.8332 343.123 23.6987C346.609 21.5405 351.272 20.4614 357.11 20.4614C362.422 20.4614 366.822 21.9141 370.308 24.8193C374.431 28.3057 376.492 33.2308 376.492 39.5947C376.492 42.417 376.036 45.9725 375.123 50.2612C377.474 56.9572 378.706 62.242 378.816 66.1157ZM351.009 48.5181C349.874 49.3481 349.058 50.1782 348.56 51.0083C348.09 51.8384 347.854 52.8206 347.854 53.9551C347.854 55.0618 348.048 56.0579 348.436 56.9434C348.851 57.8011 349.418 58.5205 350.137 59.1016C351.659 60.2913 353.361 60.8862 355.242 60.8862C357.151 60.8862 358.715 60.6649 359.932 60.2222C361.15 59.7795 362.201 59.2122 363.086 58.5205C364.996 57.0264 365.95 55.4492 365.95 53.7891C365.784 51.7139 364.636 50.0814 362.505 48.8916C360.596 47.7848 358.341 47.2314 355.74 47.2314C353.72 47.2314 352.143 47.6603 351.009 48.5181Z" fill="white"/>
<path d="M284.455 20.4614C291.428 20.4614 295.841 23.5742 297.695 29.7998C300.462 25.3451 304.128 22.4398 308.693 21.084C310.243 20.6413 312.194 20.4199 314.545 20.4199C316.897 20.4199 319.166 21.001 321.352 22.1631C323.566 23.3252 325.198 24.847 326.25 26.7285C327.329 28.5824 328.007 30.6299 328.283 32.8711C328.588 35.1123 328.74 37.5195 328.74 40.0928V65.5762C328.74 66.3509 328.491 67.0011 327.993 67.5269C327.495 68.0526 326.761 68.3154 325.793 68.3154H321.726C320.674 68.3154 319.899 68.0526 319.401 67.5269C318.903 67.0011 318.654 66.3509 318.654 65.5762V39.7192C318.654 36.1499 318.032 33.4937 316.787 31.7505C315.569 30.0073 313.632 29.1357 310.976 29.1357C307.96 29.1357 305.318 30.4639 303.049 33.1201C300.614 35.887 299.396 39.318 299.396 43.4131V65.5762C299.396 66.3509 299.147 67.0011 298.649 67.5269C298.151 68.0526 297.418 68.3154 296.45 68.3154H292.382C291.331 68.3154 290.556 68.0526 290.058 67.5269C289.56 67.0011 289.311 66.3509 289.311 65.5762V39.7192C289.311 36.1499 288.688 33.4937 287.443 31.7505C286.226 30.0073 284.289 29.1357 281.633 29.1357C278.617 29.1357 275.961 30.4639 273.664 33.1201C271.257 35.887 270.053 39.318 270.053 43.4131V65.5762C270.053 66.3509 269.818 67.0011 269.348 67.5269C268.877 68.0526 268.158 68.3154 267.189 68.3154H262.915C261.946 68.3154 261.213 68.0526 260.715 67.5269C260.217 67.0011 259.968 66.3509 259.968 65.5762V40.0928C259.968 34.5312 259.788 30.6576 259.428 28.4717C259.069 26.2581 258.889 24.93 258.889 24.4873C258.889 22.4951 259.843 21.499 261.752 21.499H264.035C265.585 21.499 266.636 22.0801 267.189 23.2422C267.854 24.6533 268.49 26.8392 269.099 29.7998C271.506 25.4557 274.992 22.5781 279.558 21.167C281.107 20.6966 282.74 20.4614 284.455 20.4614Z" fill="white"/>
<path d="M251.436 27.8076C251.436 29.3571 250.564 30.1318 248.821 30.1318H237.117V56.1963C237.117 59.0186 238.514 60.4297 241.309 60.4297C243.08 60.4297 245.39 59.5443 248.24 57.7734C248.794 57.4137 249.389 57.2339 250.025 57.2339C250.689 57.2339 251.215 57.6904 251.602 58.6035L252.557 60.7617C252.916 61.5918 253.096 62.2974 253.096 62.8784C253.096 63.4595 252.653 64.1374 251.768 64.9121C250.91 65.6592 249.804 66.3371 248.448 66.9458C245.376 68.3293 242.596 69.021 240.105 69.021C237.615 69.021 235.637 68.772 234.17 68.2739C232.732 67.7482 231.5 66.9735 230.477 65.9497C228.263 63.7915 227.156 60.6787 227.156 56.6113V30.1318H223.67C221.927 30.1318 221.055 29.3433 221.055 27.7661V25.4004C221.055 24.764 221.221 24.266 221.553 23.9062C221.885 23.5465 222.535 23.2699 223.504 23.0762L227.654 21.8726L229.231 12.1191C229.536 10.293 230.283 9.37988 231.473 9.37988H234.917C235.554 9.37988 236.08 9.64274 236.495 10.1685C236.91 10.6665 237.117 11.3167 237.117 12.1191V21.499H248.821C250.564 21.499 251.436 22.2599 251.436 23.7817V27.8076Z" fill="white"/>
<path d="M169.277 44.7412C169.277 41.1442 169.872 37.8516 171.062 34.8633C172.279 31.8473 173.939 29.2741 176.042 27.1436C180.441 22.6888 185.989 20.4614 192.685 20.4614C200.183 20.4614 205.994 22.6888 210.117 27.1436C214.101 31.4323 216.093 37.3258 216.093 44.8242C216.093 52.0736 213.838 57.9948 209.328 62.5879C204.929 67.098 199.381 69.353 192.685 69.353C185.629 69.353 179.957 67.0426 175.668 62.4219C171.407 57.9118 169.277 52.0182 169.277 44.7412ZM182.6 34.1992C181.576 35.721 180.829 37.4642 180.358 39.4287C179.888 41.3656 179.653 43.3439 179.653 45.3638C179.653 47.356 179.916 49.279 180.441 51.1328C180.995 52.959 181.811 54.5915 182.89 56.0303C185.27 59.1846 188.59 60.7617 192.851 60.7617C197.195 60.7617 200.488 59.2122 202.729 56.1133C204.721 53.4017 205.717 49.7078 205.717 45.0317C205.717 38.0314 203.421 33.2031 198.828 30.5469C197.14 29.5785 195.092 29.0942 192.685 29.0942C190.305 29.0942 188.286 29.5646 186.625 30.5054C184.993 31.4185 183.651 32.6497 182.6 34.1992Z" fill="white"/>
<path d="M128.165 61.1353C128.441 63.9022 128.58 67.3608 128.58 71.5112V88.6523C128.58 90.6999 127.763 91.7236 126.131 91.7236H120.984C119.241 91.7236 118.37 90.6445 118.37 88.4863V42.5415C118.37 34.7664 117.955 29.0942 117.125 25.5249C117.042 25.1652 117 24.6672 117 24.0308C117 23.3944 117.249 22.8133 117.747 22.2876C118.273 21.7619 118.937 21.499 119.739 21.499H122.271C123.793 21.499 124.872 22.1631 125.508 23.4912C126.255 25.0407 126.823 27.0467 127.21 29.5093C129.147 26.1336 131.789 23.6711 135.137 22.1216C137.517 21.0148 140.215 20.4614 143.23 20.4614C146.274 20.4614 148.986 21.0563 151.365 22.2461C153.745 23.4082 155.723 25.013 157.3 27.0605C160.427 31.1279 161.99 36.5788 161.99 43.4131C161.99 50.5518 160.233 56.5837 156.719 61.5088C153.012 66.7383 148.156 69.353 142.151 69.353C135.898 69.353 131.236 66.6138 128.165 61.1353ZM127.625 46.4014C127.625 50.3857 128.953 53.8167 131.609 56.6943C134.127 59.4059 136.977 60.7617 140.159 60.7617C144.171 60.7617 147.146 58.811 149.083 54.9097C150.632 51.8107 151.407 47.8955 151.407 43.1641C151.407 39.3457 150.494 36.1084 148.667 33.4521C146.703 30.5745 144.088 29.1357 140.823 29.1357C137.143 29.1357 134.003 30.6576 131.402 33.7012C128.884 36.6895 127.625 40.1619 127.625 44.1187V46.4014Z" fill="white"/>
</svg>
